<?xml version="1.0" encoding="utf-8"?>
<!-- Generator: Adobe Illustrator 27.9.0, SVG Export Plug-In . SVG Version: 6.00 Build 0)  -->
<svg version="1.1" id="Layer_1" xmlns="http://www.w3.org/2000/svg" xmlns:xlink="http://www.w3.org/1999/xlink" x="0px" y="0px"
	 viewBox="0 0 512 512" style="enable-background:new 0 0 512 512;" xml:space="preserve">
<style type="text/css">
	.st0{fill:url(#SVGID_1_);}
</style>
<linearGradient id="SVGID_1_" gradientUnits="userSpaceOnUse" x1="23.1018" y1="283.5363" x2="362.2049" y2="94.9811">
	<stop  offset="0" style="stop-color:#6E5DFF"/>
	<stop  offset="0.309" style="stop-color:#6D40B0"/>
	<stop  offset="1" style="stop-color:#FF3876"/>
</linearGradient>
<path class="st0" d="M394.84,41.03c-18.63-0.67-35.08,8.87-44.22,23.45l-1.33,2.25c-1.52,2.73-32.44,80.7-48.45,121.16
	c-3.93,9.93-15.96,13.78-24.91,7.97c-7.82-5.08-17.15-8.02-27.17-8.02c-9.59,0-18.54,2.7-26.14,7.38
	c-5.92,3.64-13.4,3.61-19.15-0.29l-62.41-42.36c-8.59-5.83-9.35-18.04-1.79-25.16c10.22-9.62,16.4-23.49,15.68-38.8
	c-1.2-25.73-22.23-46.57-47.96-47.57C78.46,39.94,55,62.73,55,91c0,12.88,4.87,24.61,12.86,33.48c0,0,11.24,9.65,16.3,11.98
	l119.02,80.78c-2.38,5.25-3.87,10.98-4.3,17.01l-39.62,99.27c-4.37,10.94-17.63,15.51-27.58,9.21c-7.96-5.04-17.45-7.89-27.62-7.71
	c-27.69,0.5-49.91,23.89-49.05,51.57C55.86,413.46,77.91,435,105,435c21.99,0,40.66-14.21,47.35-33.94l43.82-109.78
	c4.47-11.2,17.74-15.63,28.27-9.75c7.2,4.02,15.49,6.31,24.31,6.31c22.73,0,41.91-15.17,47.98-35.94
	c2.97-10.14,6.69-20.04,10.6-29.85L340,140.21c3.98-9.96,16.15-13.78,25.04-7.77c7.98,5.4,17.6,8.56,27.97,8.56
	c27.66,0,50.08-22.46,50-50.14C442.93,64.2,421.48,41.99,394.84,41.03z"/>
</svg>
